HIERARCHY
ROOT Hips
{
    OFFSET 0.0 0.0 0.0
    CHANNELS 6 Xposition Yposition Zposition Zrotation Xrotation Yrotation
    JOINT LeftHipJoint
    {
        OFFSET 0.1 0.0 0.0
        CHANNELS 3 Zrotation Xrotation Yrotation
        JOINT LeftUpLeg
        {
            OFFSET 122.75026672719969 0.0 0.0
            CHANNELS 3 Zrotation Xrotation Yrotation
            JOINT LeftLeg
            {
                OFFSET 0.0 0.0 -396.64868163931817
                CHANNELS 3 Zrotation Xrotation Yrotation
                JOINT LeftFoot
                {
                    OFFSET 0.0 0.0 -379.65772533760054
                    CHANNELS 3 Zrotation Xrotation Yrotation
                    End Site
                    {
                        OFFSET 0.0 -0.1 0.0
                    }
                }
            }
        }
    }
    JOINT LowerBack
    {
        OFFSET 0.0 0.0 0.1
        CHANNELS 3 Zrotation Xrotation Yrotation
        JOINT Spine
        {
            OFFSET 0.0 0.0 218.64950983632795
            CHANNELS 3 Zrotation Xrotation Yrotation
            JOINT Spine1
            {
                OFFSET 0.0 0.0 251.4894215651222
                CHANNELS 3 Zrotation Xrotation Yrotation
                JOINT LeftShoulder
                {
                    OFFSET 0.1 0.0 0.0
                    CHANNELS 3 Zrotation Xrotation Yrotation
                    JOINT LeftArm
                    {
                        OFFSET 140.57440810036624 0.0 0.0
                        CHANNELS 3 Zrotation Xrotation Yrotation
                        JOINT LeftForeArm
                        {
                            OFFSET 260.88308147968974 0.0 0.0
                            CHANNELS 3 Zrotation Xrotation Yrotation
                            JOINT LeftHand
                            {
                                OFFSET 243.63870120206263 0.0 0.0
                                CHANNELS 3 Zrotation Xrotation Yrotation
                                End Site
                                {
                                    OFFSET 0.1 0.0 0.0
                                }
                            }
                        }
                    }
                }
                JOINT Neck
                {
                    OFFSET 0.0 0.0 0.1
                    CHANNELS 3 Zrotation Xrotation Yrotation
                    JOINT Neck1
                    {
                        OFFSET 0.0 0.0 105.92312184526637
                        CHANNELS 3 Zrotation Xrotation Yrotation
                        End Site
                        {
                            OFFSET 0.0 0.0 116.08876874627452
                        }
                    }
                }
                JOINT RightShoulder
                {
                    OFFSET -0.1 0.0 0.0
                    CHANNELS 3 Zrotation Xrotation Yrotation
                    JOINT RightArm
                    {
                        OFFSET -140.57440810036624 0.0 0.0
                        CHANNELS 3 Zrotation Xrotation Yrotation
                        JOINT RightForeArm
                        {
                            OFFSET -260.88308147968974 0.0 0.0
                            CHANNELS 3 Zrotation Xrotation Yrotation
                            JOINT RightHand
                            {
                                OFFSET -243.63870120206263 0.0 0.0
                                CHANNELS 3 Zrotation Xrotation Yrotation
                                End Site
                                {
                                    OFFSET -0.1 0.0 0.0
                                }
                            }
                        }
                    }
                }
            }
        }
    }
    JOINT RightHipJoint
    {
        OFFSET -0.1 0.0 0.0
        CHANNELS 3 Zrotation Xrotation Yrotation
        JOINT RightUpLeg
        {
            OFFSET -122.75026672719969 0.0 0.0
            CHANNELS 3 Zrotation Xrotation Yrotation
            JOINT RightLeg
            {
                OFFSET 0.0 0.0 -396.64868163931817
                CHANNELS 3 Zrotation Xrotation Yrotation
                JOINT RightFoot
                {
                    OFFSET 0.0 0.0 -379.65772533760054
                    CHANNELS 3 Zrotation Xrotation Yrotation
                    End Site
                    {
                        OFFSET 0.0 -0.1 0.0
                    }
                }
            }
        }
    }
}
MOTION
Frames: 11
Frame Time: 0.03333333333333333
0.0 0.0 771.2803430653244 24.90618720673231 5.7331719582284 7.165706782243002 0.0 0.0 5.963540027744093e-16 -0.9968601482367211 -27.51069463408956 -4.548207475253814 -1.425474311444102 30.80841367202466 1.9649470097523036 1.3793457181406746e-32 -1.5902773407317584e-15 9.93923337957349e-16 0.0 0.0 5.963540027744093e-16 -0.006714321054069271 -0.2005428137401167 -0.8354617615455737 -1.4047291515415292 0.0 0.0 -2.5862732215137646e-33 -9.93923337957349e-16 -2.981770013872047e-16 -37.419564390646435 7.127436805362044 69.58405087351359 -29.150437986852186 -3.154937667650128e-15 -1.3144022188446901e-14 0.0 0.0 1.7890620083232284e-15 -2.5862732215137646e-33 -9.93923337957349e-16 -2.981770013872047e-16 -10.0502369640469 -1.237087611068146 -15.670699653771228 -2.5862732215137646e-33 -9.93923337957349e-16 -2.981770013872047e-16 2.097337326519525 -42.700520364448735 -49.83778097025722 131.38403748396286 -2.8985856091290404e-15 -1.3092477031981097e-15 0.0 -9.93923337957349e-17 0.0 0.0 0.0 5.963540027744093e-16 -0.6571189980480857 -18.86042320892759 -7.997975140716327 -2.5547897217503244 23.089663020761503 1.9306949711477728 0.0 0.0 -3.975693351829396e-16
0.0 0.0 771.2803430653244 25.023408788401294 5.707622842299595 7.189176959757665 0.0 0.0 -1.987846675914698e-16 -1.0398736972639997 -27.38445093413665 -4.640051669037108 -1.43189562956908 31.036267375614628 2.079232546782122 0.0 0.0 -1.987846675914698e-16 0.0 0.0 -1.987846675914698e-16 -0.00922292166853259 -0.26267555970058215 -0.8651706368142454 -1.420817715476493 7.96309882354667e-16 -8.952604309851788e-17 0.0 0.0 2.981770013872047e-16 -37.32235390437584 7.051247228057797 69.46224266127012 -29.34012969882617 4.6315305054378845e-15 -1.769199811725721e-14 0.0 0.0 2.5842006786891076e-15 0.0 0.0 2.981770013872047e-16 -10.23506754036447 -1.467680360332157 -15.804653806417699 0.0 0.0 2.981770013872047e-16 2.3700859971176182 -42.57088331201004 -49.565216955909065 130.81607553959313 8.431317989279034e-15 -3.1369255040398505e-15 0.0 0.0 0.0 0.0 0.0 -1.987846675914698e-16 -0.6936480297031558 -18.97713652223707 -8.059099432892399 -2.594757875038114 23.550272193077678 2.070536303973669 3.1805546814635164e-15 1.1034765745125397e-32 3.9756933518293955e-16
0.0 0.0 771.2803430653244 25.056324001298243 5.669644922522518 7.151626185872086 0.0 0.0 -1.888454342118963e-15 -1.0773427202471701 -27.26236022316044 -4.625552172790935 -1.373308788607323 31.13018136791416 2.0868735988714504 0.0 0.0 0.0 0.0 0.0 -1.888454342118963e-15 -0.012995494318921373 -0.3554032541155935 -0.9007444431278369 -1.378578695937202 5.975065457773165e-16 -9.22109559417032e-17 -3.4483642953516864e-34 1.987846675914698e-16 1.987846675914698e-16 -36.96372407435007 6.984813245641063 69.42479877919924 -29.451879636322985 -1.0080998743343475e-14 -1.1693161239101966e-14 3.1805546814635176e-15 -3.1805546814635176e-15 2.584200678689108e-15 -3.4483642953516864e-34 1.987846675914698e-16 1.987846675914698e-16 -10.330518728422453 -1.519532009734781 -15.85614844335362 -3.4483642953516864e-34 1.987846675914698e-16 1.987846675914698e-16 2.744814647566575 -42.335360753411074 -49.20409712373472 130.2056748611152 -3.0919696827145328e-15 -8.447907914709426e-15 0.0 0.0 0.0 0.0 0.0 -1.888454342118963e-15 -0.7253201102923085 -19.050129024485017 -8.030124476344342 -2.59808727412356 24.004997930747614 2.075927469916313 0.0 0.0 3.975693351829396e-16
0.0 0.0 771.2803430653244 25.08739973548492 5.679935615554642 7.12060122438865 0.0 0.0 1.987846675914698e-16 -1.07730743347845 -27.242115455161404 -4.5298849722260295 -1.342021113263883 31.659258895020677 1.9819047487216965 0.0 0.0 0.0 0.0 0.0 1.987846675914698e-16 -0.017096286126730618 -0.4671385072092809 -0.9388425399575735 -1.323080023479361 1.9762385412622058e-16 1.0168083579078314e-16 0.0 0.0 -2.981770013872047e-16 -36.83461658865439 6.748739769913132 69.42164851558657 -29.369813210859018 2.7211969023988624e-15 -1.0383729133836956e-14 0.0 0.0 7.951386703658792e-16 0.0 0.0 -2.981770013872047e-16 -10.331672662583008 -1.6475728147328998 -15.965534221914776 0.0 0.0 -2.981770013872047e-16 3.32198658587785 -42.33991494902515 -48.767272585210975 129.3125298188817 -2.7228591502299135e-15 5.7488912300657776e-15 0.0 0.0 0.0 0.0 0.0 1.987846675914698e-16 -0.7276685407802527 -19.090779852976212 -7.979381669955239 -2.6268047768225573 24.43904345339591 2.0689462475869824 0.0 0.0 0.0
0.0 0.0 771.2803430653244 25.118123771890474 5.7076094005595674 7.127517268418636 0.0 0.0 0.0 -1.0935513621589352 -27.230083387040796 -4.530405356522965 -1.325228649824182 31.764135767750982 1.947734316234963 0.0 0.0 3.975693351829396e-16 0.0 0.0 0.0 -0.02241551885262549 -0.6030724347317117 -1.0096845912294092 -1.3127243067792471 -1.1789667621148115e-15 -1.2062927284987668e-15 0.0 0.0 -3.975693351829396e-16 -36.60987312084958 6.640139506677827 69.48008588722844 -29.37846393067104 -1.0081410299085767e-16 3.845749509730884e-16 0.0 0.0 2.9817700138720468e-15 0.0 0.0 -3.975693351829396e-16 -10.25582846698895 -1.6549672199189212 -15.95584212806455 0.0 0.0 -3.975693351829396e-16 3.6819967657134116 -42.20544770362818 -48.382438594124174 128.67848553729345 -5.621495137966378e-15 4.356424316193023e-15 0.0 0.0 0.0 0.0 0.0 0.0 -0.7431688438732618 -19.190670518765415 -8.031376135136469 -2.6698848113454603 24.730460208544724 2.1684490146820314 0.0 0.0 3.975693351829396e-16
0.0 0.0 771.2803430653244 25.138329580751577 5.704055596716952 7.060263583192166 0.0 0.0 9.93923337957349e-17 -1.0635824752626473 -27.158078402105783 -4.401169523959089 -1.2911489891971983 31.944786729218542 1.9266888955989492 0.0 0.0 -3.975693351829396e-16 0.0 0.0 9.93923337957349e-17 -0.025932196971534448 -0.7150685489471948 -1.012752612176762 -1.3345847310666716 -5.847381429383757e-16 -1.000801180332197e-15 0.0 0.0 3.975693351829396e-16 -36.327357130618 6.360112844100326 69.47787109840907 -29.379562785342465 5.5284859495350775e-16 -1.465120575819179e-14 0.0 0.0 1.987846675914698e-16 0.0 0.0 3.975693351829396e-16 -10.196571647658017 -1.6957712121556587 -16.04683362263906 0.0 0.0 3.975693351829396e-16 4.193568581200575 -42.23044297275166 -47.9786581006957 128.02617460209478 -2.8589820098090185e-15 -1.3936104008537965e-15 0.0 9.93923337957349e-17 0.0 0.0 0.0 9.93923337957349e-17 -0.7275609851389797 -19.249835959862256 -7.981150504673295 -2.7018590892698064 24.976070179210456 2.2971155921672946 0.0 0.0 0.0
0.0 0.0 771.2803430653244 25.12320213013965 5.589530832177372 7.016034233527464 0.0 0.0 -2.981770013872047e-16 -1.045345604038417 -26.88394742272635 -4.330886539161842 -1.2586537584757476 31.94403014250337 2.015452965047705 -3.1805546814635168e-15 -2.2069531490250793e-32 7.951386703658792e-16 0.0 0.0 -2.981770013872047e-16 -0.02919108807432538 -0.8093138220710696 -1.0697045783841084 -1.3185252165750443 -9.835650256426838e-16 -9.059079199759606e-16 0.0 0.0 4.969616689786744e-16 -36.01562454059562 6.174541222440787 69.60036754141899 -29.43364041335324 -7.869409348563033e-15 4.9209599242578935e-15 0.0 0.0 -2.5842006786891076e-15 0.0 0.0 4.969616689786744e-16 -10.06810588273427 -1.542992784173657 -16.04255404942124 0.0 0.0 4.969616689786744e-16 4.508012202636161 -42.01233412862926 -47.644065334419636 127.44008190209958 2.8164294524134545e-15 -5.7036337072690796e-15 0.0 0.0 0.0 0.0 0.0 -2.981770013872047e-16 -0.7148388215395548 -19.032691240898913 -7.929759126818481 -2.6757398474000165 24.903407717277602 2.3309157367879796 5.517382872562698e-33 -1.5902773407317584e-15 3.975693351829396e-16
0.0 0.0 771.2803430653244 25.01004095226283 5.619584337225625 6.922375846822394 0.0 0.0 -2.981770013872047e-16 -1.0115402022974724 -26.82555686654052 -4.160308132290135 -1.2030874406587273 32.09781411221584 2.0275360723117366 0.0 0.0 0.0 0.0 0.0 -2.981770013872047e-16 -0.02915195181350941 -0.8330525822651608 -1.1118274450909824 -1.3045538552849938 9.97253417352223e-16 -2.868427225359859e-16 0.0 0.0 4.969616689786745e-16 -35.664013111594464 5.762687039660825 69.62011497325871 -29.37229442463511 1.1087273744442825e-15 -4.23038415971555e-15 0.0 0.0 0.0 0.0 0.0 4.969616689786745e-16 -9.85913550781629 -1.609532624870457 -16.081344288310707 0.0 0.0 4.969616689786745e-16 5.137305795622179 -42.06220559542512 -47.17940164939247 126.9216964899589 -2.848632070781856e-15 -8.533036972822104e-15 0.0 0.0 0.0 0.0 0.0 -2.981770013872047e-16 -0.6955652767963088 -19.08259128551888 -7.748127667192252 -2.651101230377688 25.156241720515276 2.151415680822112 0.0 0.0 0.0
0.0 0.0 771.2803430653244 24.975067241709386 5.596143852136123 6.885182222654572 3.1805546814635164e-15 -1.3793457181406746e-32 -4.969616689786744e-16 -1.0016286126363594 -26.710766143560093 -4.068332091904406 -1.1630608648567935 32.31102985952987 2.0595791417534266 0.0 0.0 3.975693351829396e-16 3.1805546814635164e-15 -1.3793457181406746e-32 -4.969616689786744e-16 -0.03142694421823921 -0.9023769957875816 -1.1339666266165742 -1.220573761632051 1.987733911625782e-16 2.1173179212941634e-18 0.0 0.0 -9.93923337957349e-17 -35.483338870822436 5.748605124929312 69.7216739489665 -29.338669397627214 3.020416334685475e-16 -1.1538298133398587e-15 0.0 0.0 2.9817700138720468e-15 0.0 0.0 -9.93923337957349e-17 -9.759980996242483 -1.6286528100682245 -16.03074685321089 0.0 0.0 -9.93923337957349e-17 5.476324713838949 -42.17543981759684 -46.86553633636208 126.52804937972448 0.0 0.0 0.0 1.9878466759146977e-16 0.0 3.1805546814635164e-15 -1.3793457181406746e-32 -4.969616689786744e-16 -0.6883160179295627 -18.980948606979485 -7.708697913461211 -2.656285635041274 25.31031216560572 2.151452508260967 0.0 0.0 0.0
0.0 0.0 771.2803430653244 24.953813558007425 5.600545042801618 6.843453875402316 1.2069275033730902e-33 -1.987846675914698e-16 6.957463365701443e-16 -0.9935304522350723 -26.63035745630943 -3.9881546087917537 -1.1170750388814816 32.24657716171003 2.128178753656886 -5.517382872562698e-33 -1.5902773407317584e-15 -3.975693351829396e-16 1.2069275033730902e-33 -1.987846675914698e-16 6.957463365701443e-16 -0.03014562309481591 -0.8696394239351708 -1.116610357129579 -1.0943027130221088 6.001233783199219e-16 -3.9185635594787656e-16 0.0 0.0 0.0 -35.40141889646597 5.6334333840749595 69.71826560643255 -29.226185427207277 -6.857458019897255e-15 1.0881127101900922e-15 0.0 0.0 -3.1805546814635168e-15 0.0 0.0 0.0 -9.847650238432276 -1.8248055903749985 -16.093721011752027 0.0 0.0 0.0 5.750723939838961 -42.552154853259744 -46.64756659602501 125.97090350667156 -5.722850503458936e-15 4.222395353819593e-15 0.0 0.0 0.0 1.2069275033730902e-33 -1.987846675914698e-16 6.957463365701443e-16 -0.687147422464064 -19.034774092024712 -7.6718258772159365 -2.6657490725899153 25.500252773132623 2.166754200053893 0.0 0.0 3.975693351829396e-16
0.0 0.0 771.2803430653244 25.05290450102106 5.483761935135691 6.8137848098475216 0.0 0.0 -3.975693351829396e-16 -1.0009396720769237 -26.571804353396903 -3.9913447051008553 -1.1189355640462721 32.55578599390907 2.248383603753152 0.0 0.0 0.0 0.0 0.0 -3.975693351829396e-16 -0.030112794178053254 -0.8600074468978882 -1.1127873276320936 -1.0487008248380703 1.181742976459424e-15 1.2035731430159547e-15 0.0 0.0 -3.975693351829396e-16 -35.32230320401512 5.650935435032888 69.76923658448146 -29.2613269163942 -7.596364402703362e-15 1.650713369745563e-14 -3.1805546814635176e-15 -8.276074308844047e-32 2.9817700138720476e-15 0.0 0.0 -3.975693351829396e-16 -9.879225428855209 -1.90336473419405 -16.038875054699176 0.0 0.0 -3.975693351829396e-16 6.098178407178578 -42.774715048666266 -46.413132419189424 125.41742910956735 3.0068028505145256e-15 -1.2764400260427008e-14 0.0 0.0 0.0 0.0 0.0 -3.975693351829396e-16 -0.697754962809748 -19.126475958249927 -7.684455510099966 -2.7012890593912373 25.835752968090553 2.2715634379321004 0.0 0.0 3.975693351829396e-16
